<svg
                xmlns="http://www.w3.org/2000/svg"
                width="33"
                height="33"
                viewBox="0 0 33 33"
                fill="none"
              >
                <path
                  d="M33 16.5C33 7.66347 25.6127 0.500036 16.5 0.500036C7.38729 0.500036 0 7.66347 0 16.5C0 24.4861 6.03381 31.1053 13.9219 32.3057V21.125H9.73242V16.5H13.9219V12.975C13.9219 8.96504 16.3852 6.75004 20.1542 6.75004C21.9594 6.75004 23.8477 7.06254 23.8477 7.06254V11H21.767C19.7173 11 19.0781 12.2334 19.0781 13.4987V16.5H23.6543L22.9228 21.125H19.0781V32.3057C26.9662 31.1053 33 24.4861 33 16.5Z"
                  fill="white"
                />
                <path
                  d="M22.9228 21.125L23.6543 16.5H19.0781V13.4987C19.0781 12.2333 19.7173 11 21.767 11H23.8477V7.0625C23.8477 7.0625 21.9594 6.75 20.1542 6.75C16.3852 6.75 13.9219 8.965 13.9219 12.975V16.5H9.73242V21.125H13.9219V32.3056C14.7619 32.4334 15.6229 32.5 16.5 32.5C17.3771 32.5 18.2381 32.4334 19.0781 32.3056V21.125H22.9228Z"
                  fill="#0371C8"
                />
              </svg>