<svg
                xmlns="http://www.w3.org/2000/svg"
                width="33"
                height="33"
                viewBox="0 0 33 33"
                fill="none"
              >
                <g clip-path="url(#clip0_1728_2848)">
                  <path
                    d="M16.5 32.5C25.6127 32.5 33 25.3366 33 16.5C33 7.66344 25.6127 0.5 16.5 0.5C7.3873 0.5 0 7.66344 0 16.5C0 25.3366 7.3873 32.5 16.5 32.5Z"
                    fill="white"
                  />
                  <path
                    d="M13.4806 24.9399C20.7984 24.9399 24.7996 19.0599 24.7996 13.9639C24.7996 13.7959 24.7996 13.6279 24.7914 13.4679C25.5669 12.9239 26.2434 12.2439 26.7796 11.4679C26.0701 11.7719 25.3029 11.9799 24.4944 12.0759C25.3194 11.5959 25.9464 10.8439 26.2434 9.93991C25.4761 10.3799 24.6264 10.6999 23.7189 10.8759C22.9929 10.1239 21.9616 9.65991 20.8149 9.65991C18.6204 9.65991 16.8384 11.3879 16.8384 13.5159C16.8384 13.8199 16.8714 14.1159 16.9456 14.3959C13.6374 14.2359 10.7086 12.6999 8.74514 10.3639C8.40689 10.9319 8.20889 11.5959 8.20889 12.2999C8.20889 13.6359 8.91014 14.8199 9.98264 15.5079C9.33089 15.4919 8.72039 15.3159 8.18414 15.0279C8.18414 15.0439 8.18414 15.0599 8.18414 15.0759C8.18414 16.9479 9.55364 18.4999 11.3769 18.8599C11.0469 18.9479 10.6921 18.9959 10.3291 18.9959C10.0734 18.9959 9.82589 18.9719 9.57839 18.9239C10.0816 20.4599 11.5501 21.5719 13.2909 21.6039C11.9296 22.6359 10.2136 23.2519 8.34914 23.2519C8.02739 23.2519 7.71389 23.2359 7.40039 23.1959C9.14114 24.2999 11.2366 24.9399 13.4806 24.9399Z"
                    fill="#0371C8"
                  />
                </g>
                <defs>
                  <clipPath id="clip0_1728_2848">
                    <rect
                      width="33"
                      height="32"
                      fill="white"
                      transform="translate(0 0.5)"
                    />
                  </clipPath>
                </defs>
              </svg>